<?xml version="1.0" encoding="UTF-8" standalone="no"?>
<!-- Created with Inkscape (http://www.inkscape.org/) -->

<svg
   xmlns:dc="http://purl.org/dc/elements/1.1/"
   xmlns:cc="http://creativecommons.org/ns#"
   xmlns:rdf="http://www.w3.org/1999/02/22-rdf-syntax-ns#"
   xmlns:svg="http://www.w3.org/2000/svg"
   xmlns="http://www.w3.org/2000/svg"
   xmlns:sodipodi="http://sodipodi.sourceforge.net/DTD/sodipodi-0.dtd"
   xmlns:inkscape="http://www.inkscape.org/namespaces/inkscape"
   id="svg4136"
   version="1.1"
   inkscape:version="0.92.5 (2060ec1f9f, 2020-04-08)"
   xml:space="preserve"
   width="634.22455"
   height="634.22455"
   viewBox="0 0 634.22454 634.22455"
   sodipodi:docname="LogoRenb_r.svg"><metadata
     id="metadata4142"><rdf:RDF><cc:Work
         rdf:about=""><dc:format>image/svg+xml</dc:format><dc:type
           rdf:resource="http://purl.org/dc/dcmitype/StillImage" /><dc:title></dc:title></cc:Work></rdf:RDF></metadata><defs
     id="defs4140"><clipPath
       clipPathUnits="userSpaceOnUse"
       id="clipPath4150"><path
         d="M 0,1.2207e-4 H 960 V 540.00012 H 0 Z"
         id="path4152"
         inkscape:connector-curvature="0"
         style="clip-rule:evenodd" /></clipPath><clipPath
       clipPathUnits="userSpaceOnUse"
       id="clipPath4160"><path
         d="M 0,1.2207e-4 H 960 V 540.00012 H 0 Z"
         id="path4162"
         inkscape:connector-curvature="0"
         style="clip-rule:evenodd" /></clipPath><clipPath
       clipPathUnits="userSpaceOnUse"
       id="clipPath4170"><path
         d="M 0,1.2207e-4 H 960 V 540.00012 H 0 Z"
         id="path4172"
         inkscape:connector-curvature="0"
         style="clip-rule:evenodd" /></clipPath><clipPath
       clipPathUnits="userSpaceOnUse"
       id="clipPath4208"><path
         d="M -6.1035e-5,540 H 960 V 1.8311e-4 H 0"
         id="path4210"
         inkscape:connector-curvature="0"
         style="clip-rule:evenodd" /></clipPath><clipPath
       clipPathUnits="userSpaceOnUse"
       id="clipPath4218"><path
         d="M -6.1035e-5,540 H 960 V 1.8311e-4 H 0"
         id="path4220"
         inkscape:connector-curvature="0"
         style="clip-rule:evenodd" /></clipPath><clipPath
       clipPathUnits="userSpaceOnUse"
       id="clipPath4228"><path
         d="M -1.5259e-5,540 H 960 V 1.8311e-4 L 0,1.2207e-4"
         id="path4230"
         inkscape:connector-curvature="0"
         style="clip-rule:evenodd" /></clipPath><clipPath
       clipPathUnits="userSpaceOnUse"
       id="clipPath4238"><path
         d="M -1.5259e-5,540 H 960 V 1.8311e-4 L 0,1.2207e-4"
         id="path4240"
         inkscape:connector-curvature="0"
         style="clip-rule:evenodd" /></clipPath><clipPath
       clipPathUnits="userSpaceOnUse"
       id="clipPath4248"><path
         d="M 3.0518e-5,540 H 960 V 3.0518e-4 L 6.1035e-5,1.8311e-4"
         id="path4250"
         inkscape:connector-curvature="0"
         style="clip-rule:evenodd" /></clipPath><clipPath
       clipPathUnits="userSpaceOnUse"
       id="clipPath4258"><path
         d="M 3.0518e-5,540 H 960 V 3.0518e-4 L 6.1035e-5,1.8311e-4"
         id="path4260"
         inkscape:connector-curvature="0"
         style="clip-rule:evenodd" /></clipPath><clipPath
       clipPathUnits="userSpaceOnUse"
       id="clipPath4268"><path
         d="M 3.0518e-5,540 H 960 V 3.6621e-4 L 6.1035e-5,2.4414e-4"
         id="path4270"
         inkscape:connector-curvature="0"
         style="clip-rule:evenodd" /></clipPath><clipPath
       clipPathUnits="userSpaceOnUse"
       id="clipPath4278"><path
         d="M 3.0518e-5,540 H 960 V 3.6621e-4 L 6.1035e-5,2.4414e-4"
         id="path4280"
         inkscape:connector-curvature="0"
         style="clip-rule:evenodd" /></clipPath><clipPath
       clipPathUnits="userSpaceOnUse"
       id="clipPath4288"><path
         d="M 0,540 H 960 V 1.8311e-4 H 3.0518e-5"
         id="path4290"
         inkscape:connector-curvature="0"
         style="clip-rule:evenodd" /></clipPath><clipPath
       clipPathUnits="userSpaceOnUse"
       id="clipPath4298"><path
         d="M 0,540 H 960 V 1.8311e-4 H 3.0518e-5"
         id="path4300"
         inkscape:connector-curvature="0"
         style="clip-rule:evenodd" /></clipPath><clipPath
       clipPathUnits="userSpaceOnUse"
       id="clipPath4308"><path
         d="M 0,540 H 960 V 3.0518e-4 L 3.0518e-5,2.4414e-4"
         id="path4310"
         inkscape:connector-curvature="0"
         style="clip-rule:evenodd" /></clipPath><clipPath
       clipPathUnits="userSpaceOnUse"
       id="clipPath4318"><path
         d="M 0,540 H 960 V 3.0518e-4 L 3.0518e-5,2.4414e-4"
         id="path4320"
         inkscape:connector-curvature="0"
         style="clip-rule:evenodd" /></clipPath><clipPath
       clipPathUnits="userSpaceOnUse"
       id="clipPath4328"><path
         d="M 0,540 H 960 V 0 L 0,1.2207e-4"
         id="path4330"
         inkscape:connector-curvature="0"
         style="clip-rule:evenodd" /></clipPath><clipPath
       clipPathUnits="userSpaceOnUse"
       id="clipPath4338"><path
         d="M 0,540 H 960 V 0 L 0,1.2207e-4"
         id="path4340"
         inkscape:connector-curvature="0"
         style="clip-rule:evenodd" /></clipPath><clipPath
       clipPathUnits="userSpaceOnUse"
       id="clipPath4348"><path
         d="M 0,540 H 960 V 6.1035e-5 L 0,1.8311e-4"
         id="path4350"
         inkscape:connector-curvature="0"
         style="clip-rule:evenodd" /></clipPath><clipPath
       clipPathUnits="userSpaceOnUse"
       id="clipPath4358"><path
         d="M 0,540 H 960 V 6.1035e-5 L 0,1.8311e-4"
         id="path4360"
         inkscape:connector-curvature="0"
         style="clip-rule:evenodd" /></clipPath><clipPath
       clipPathUnits="userSpaceOnUse"
       id="clipPath4368"><path
         d="M -1.5259e-5,540 H 960 V 0 H 3.0518e-5"
         id="path4370"
         inkscape:connector-curvature="0"
         style="clip-rule:evenodd" /></clipPath><clipPath
       clipPathUnits="userSpaceOnUse"
       id="clipPath4378"><path
         d="M -1.5259e-5,540 H 960 V 0 H 3.0518e-5"
         id="path4380"
         inkscape:connector-curvature="0"
         style="clip-rule:evenodd" /></clipPath><clipPath
       clipPathUnits="userSpaceOnUse"
       id="clipPath4388"><path
         d="M -6.1035e-5,540 H 960 V 6.1035e-5 H -3.0518e-5"
         id="path4390"
         inkscape:connector-curvature="0"
         style="clip-rule:evenodd" /></clipPath><clipPath
       clipPathUnits="userSpaceOnUse"
       id="clipPath4398"><path
         d="M -6.1035e-5,540 H 960 V 6.1035e-5 H -3.0518e-5"
         id="path4400"
         inkscape:connector-curvature="0"
         style="clip-rule:evenodd" /></clipPath></defs><sodipodi:namedview
     pagecolor="#ffffff"
     bordercolor="#666666"
     borderopacity="1"
     objecttolerance="10"
     gridtolerance="10"
     guidetolerance="10"
     inkscape:pageopacity="0"
     inkscape:pageshadow="2"
     inkscape:window-width="3096"
     inkscape:window-height="1672"
     id="namedview4138"
     showgrid="false"
     fit-margin-top="0"
     fit-margin-left="0"
     fit-margin-right="0"
     fit-margin-bottom="0"
     inkscape:zoom="1.1366667"
     inkscape:cx="305.12832"
     inkscape:cy="227.81296"
     inkscape:window-x="104"
     inkscape:window-y="54"
     inkscape:window-maximized="1"
     inkscape:current-layer="g4144" /><g
     id="g4144"
     inkscape:groupmode="layer"
     inkscape:label="LogoRen"
     transform="matrix(1.25,0,0,-1.25,68.911303,743.91158)"><g
       id="g1028"
       transform="rotate(-45,198.32094,341.34032)"><g
         id="g4146" /><g
         id="g4156"><g
           clip-path="url(#clipPath4160)"
           id="g4158"><path
             inkscape:connector-curvature="0"
             id="path4164"
             style="fill:#4087c4;fill-opacity:1;fill-rule:evenodd;stroke:none"
             d="M 0,473.86 C 0,510.39 29.612,540 66.141,540 H 330.7 c 36.53,0 66.14,-29.61 66.14,-66.14 V 209.3 c 0,-36.53 -29.61,-66.14 -66.14,-66.14 H 66.141 C 29.612,143.16 0,172.77 0,209.3 Z" /></g></g><g
         id="g4166"><g
           clip-path="url(#clipPath4170)"
           id="g4168"><path
             inkscape:connector-curvature="0"
             id="path4174"
             style="fill:none;stroke:#4087c4;stroke-width:0.95999998;stroke-linecap:butt;stroke-linejoin:miter;stroke-miterlimit:10;stroke-dasharray:none;stroke-opacity:1"
             d="M 0,473.86 C 0,510.39 29.612,540 66.141,540 H 330.7 c 36.53,0 66.14,-29.61 66.14,-66.14 V 209.3 c 0,-36.53 -29.61,-66.14 -66.14,-66.14 H 66.141 C 29.612,143.16 0,172.77 0,209.3 Z" /></g></g><path
         inkscape:connector-curvature="0"
         id="path4176"
         style="fill:#ffffff;fill-opacity:1;fill-rule:evenodd;stroke:none"
         d="m 114.43,313.06 c 19.28,-2.14 50.51,-11.68 67.98,-13.83 17.47,-2.16 18.79,-0.99 36.82,0.9 18.04,1.89 46.71,10.53 71.37,10.45 24.65,-0.08 61.38,-8.23 76.57,-10.94 15.19,-2.7 12.14,-0.91 14.57,-5.29 2.43,-4.38 1.99,-15.98 0,-20.98 -1.98,-5 -8.61,0.45 -11.9,-9.02 -3.3,-9.47 -0.8,-34.85 -7.88,-47.8 -7.07,-12.96 -17.84,-23.92 -34.55,-29.93 -16.72,-6.01 -48.91,-12.03 -65.73,-6.11 -16.83,5.91 -28.77,28.37 -35.23,41.6 -6.46,13.23 -8.03,31.3 -12.54,40.03 -4.51,8.73 -9.68,12.97 -14.53,12.36 -4.84,-0.61 -8.82,-5.38 -14.52,-16 -5.71,-10.62 -11.54,-35.31 -19.69,-47.71 -8.14,-12.4 -16.05,-21.69 -29.18,-26.69 -13.13,-4.99 -34.85,-5.66 -49.572,-3.26 -14.724,2.4 -29.967,7.52 -38.768,17.67 -8.802,10.14 -11.015,31.48 -14.042,43.18 -3.028,11.71 -1.12,21.94 -4.125,27.05 -3.005,5.11 -11.264,8.53 -12.389,10.83 -1.125,2.3 -0.75,15.11 0.75,17.4 1.5,2.3 3.137,0.7 11.417,2.9 8.281,2.19 21.631,10.33 37.517,12.17 15.885,1.84 28.383,3.15 47.652,1.02 z" /><path
         inkscape:connector-curvature="0"
         id="path4178"
         style="fill:#ffffff;fill-opacity:1;fill-rule:evenodd;stroke:none"
         d="m 104.05,509.72 c 10.44,-0.81 8,13.88 20.63,11.25 12.62,-2.62 1.87,-11.93 12.37,-18 10.5,-6.06 14,9.63 25.88,-0.37 11.88,-10 -0.63,-17.62 3.75,-22.87 4.38,-5.25 17.38,3.5 22.5,-8.62 5.13,-12.13 -8,-12 -6,-24 2,-12 15.63,-1.75 16.13,-19.12 0.5,-17.37 -13.63,-4.38 -16.5,-16.12 -2.88,-11.75 11.37,-11.44 6,-24 -5.38,-12.56 -13.38,1.12 -20.25,-6.37 -6.88,-7.5 5,-18.13 -4.88,-25.88 -9.88,-7.74 -15,6.75 -25.13,1.5 -10.12,-5.24 2.25,-14.99 -12.37,-19.12 -14.63,-4.12 -10,8.88 -21.38,11.25 -11.375,2.38 -7.125,-14.75 -21.751,-10.87 -14.626,3.87 -3,14.25 -12.001,18.37 -9,4.12 -17.626,-7.25 -27.001,-1.13 -9.376,6.13 3.125,15.13 -2.25,24 -5.376,8.87 -19.377,-2.62 -24.002,9.75 -4.625,12.37 10.626,13.75 7.5,22.5 -3.125,8.74 -15.126,0.81 -16.1257,17.24 -1.0001,16.44 13.5007,4.81 16.8757,16.12 3.376,11.32 -11.5,13.25 -7.875,24.75 3.625,11.5 17.689,4.12 22.126,9.75 4.438,5.62 -5.25,17.12 4.501,23.99 9.75,6.88 17.376,-6.31 24.751,-1.87 7.376,4.44 2.501,18.56 15.001,19.5 12.501,0.93 9.064,-10.81 19.501,-11.63 z" /><path
         inkscape:connector-curvature="0"
         id="path4180"
         style="fill:#ffffff;fill-opacity:1;fill-rule:evenodd;stroke:none"
         d="m 204.6,432.18 c 0,47.42 38.44,85.86 85.86,85.86 47.42,0 85.86,-38.44 85.86,-85.86 0,-47.42 -38.44,-85.86 -85.86,-85.86 -47.42,0 -85.86,38.44 -85.86,85.86 z" /><path
         inkscape:connector-curvature="0"
         id="path4182"
         style="fill:none;stroke:#ffffff;stroke-width:0.95999998;stroke-linecap:butt;stroke-linejoin:miter;stroke-miterlimit:10;stroke-dasharray:none;stroke-opacity:1"
         d="m 204.6,432.18 c 0,47.42 38.44,85.86 85.86,85.86 47.42,0 85.86,-38.44 85.86,-85.86 0,-47.42 -38.44,-85.86 -85.86,-85.86 -47.42,0 -85.86,38.44 -85.86,85.86 z" /><path
         inkscape:connector-curvature="0"
         id="path4184"
         style="fill:#4087c4;fill-opacity:1;fill-rule:evenodd;stroke:none"
         d="m 208.32,432.18 c 0,45.36 36.78,82.14 82.14,82.14 45.36,0 82.14,-36.78 82.14,-82.14 0,-45.36 -36.78,-82.14 -82.14,-82.14 -45.36,0 -82.14,36.78 -82.14,82.14 z" /><path
         inkscape:connector-curvature="0"
         id="path4186"
         style="fill:none;stroke:#ffffff;stroke-width:0.95999998;stroke-linecap:butt;stroke-linejoin:miter;stroke-miterlimit:10;stroke-dasharray:none;stroke-opacity:1"
         d="m 208.32,432.18 c 0,45.36 36.78,82.14 82.14,82.14 45.36,0 82.14,-36.78 82.14,-82.14 0,-45.36 -36.78,-82.14 -82.14,-82.14 -45.36,0 -82.14,36.78 -82.14,82.14 z" /><path
         inkscape:connector-curvature="0"
         id="path4188"
         style="fill:#ffffff;fill-opacity:1;fill-rule:evenodd;stroke:none"
         d="m 234.96,432.18 c 0,30.65 24.85,55.5 55.5,55.5 30.65,0 55.5,-24.85 55.5,-55.5 0,-30.65 -24.85,-55.5 -55.5,-55.5 -30.65,0 -55.5,24.85 -55.5,55.5 z" /><path
         inkscape:connector-curvature="0"
         id="path4190"
         style="fill:none;stroke:#ffffff;stroke-width:0.95999998;stroke-linecap:butt;stroke-linejoin:miter;stroke-miterlimit:10;stroke-dasharray:none;stroke-opacity:1"
         d="m 234.96,432.18 c 0,30.65 24.85,55.5 55.5,55.5 30.65,0 55.5,-24.85 55.5,-55.5 0,-30.65 -24.85,-55.5 -55.5,-55.5 -30.65,0 -55.5,24.85 -55.5,55.5 z" /><path
         inkscape:connector-curvature="0"
         id="path4192"
         style="fill:#4087c4;fill-opacity:1;fill-rule:evenodd;stroke:none"
         d="m 239.88,432.12 c 0,27.97 22.65,50.64 50.58,50.64 27.93,0 50.58,-22.67 50.58,-50.64 0,-27.97 -22.65,-50.64 -50.58,-50.64 -27.93,0 -50.58,22.67 -50.58,50.64 z" /><path
         inkscape:connector-curvature="0"
         id="path4194"
         style="fill:none;stroke:#ffffff;stroke-width:0.95999998;stroke-linecap:butt;stroke-linejoin:miter;stroke-miterlimit:10;stroke-dasharray:none;stroke-opacity:1"
         d="m 239.88,432.12 c 0,27.97 22.65,50.64 50.58,50.64 27.93,0 50.58,-22.67 50.58,-50.64 0,-27.97 -22.65,-50.64 -50.58,-50.64 -27.93,0 -50.58,22.67 -50.58,50.64 z" /><path
         inkscape:connector-curvature="0"
         id="path4196"
         style="fill:#ffffff;fill-opacity:1;fill-rule:evenodd;stroke:none"
         d="m 347.52,432.12 c 0,6.63 5.37,12 12,12 6.63,0 12,-5.37 12,-12 0,-6.63 -5.37,-12 -12,-12 -6.63,0 -12,5.37 -12,12 z" /><path
         inkscape:connector-curvature="0"
         id="path4198"
         style="fill:none;stroke:#ffffff;stroke-width:0.95999998;stroke-linecap:butt;stroke-linejoin:miter;stroke-miterlimit:10;stroke-dasharray:none;stroke-opacity:1"
         d="m 347.52,432.12 c 0,6.63 5.37,12 12,12 6.63,0 12,-5.37 12,-12 0,-6.63 -5.37,-12 -12,-12 -6.63,0 -12,5.37 -12,12 z" /><path
         inkscape:connector-curvature="0"
         id="path4200"
         style="fill:#ffffff;fill-opacity:1;fill-rule:evenodd;stroke:none"
         d="m 209.88,432.12 c 0,6.63 5.37,12 12,12 6.63,0 12,-5.37 12,-12 0,-6.63 -5.37,-12 -12,-12 -6.63,0 -12,5.37 -12,12 z" /><path
         inkscape:connector-curvature="0"
         id="path4202"
         style="fill:none;stroke:#ffffff;stroke-width:0.95999998;stroke-linecap:butt;stroke-linejoin:miter;stroke-miterlimit:10;stroke-dasharray:none;stroke-opacity:1"
         d="m 209.88,432.12 c 0,6.63 5.37,12 12,12 6.63,0 12,-5.37 12,-12 0,-6.63 -5.37,-12 -12,-12 -6.63,0 -12,5.37 -12,12 z" /><g
         id="g4204"><g
           clip-path="url(#clipPath4208)"
           id="g4206"><path
             inkscape:connector-curvature="0"
             id="path4212"
             style="fill:#ffffff;fill-opacity:1;fill-rule:evenodd;stroke:none"
             d="m 339.11,402.62 c 3.31,5.74 10.65,7.71 16.39,4.39 5.74,-3.31 7.71,-10.65 4.39,-16.39 -3.31,-5.74 -10.65,-7.71 -16.39,-4.39 -5.74,3.31 -7.71,10.65 -4.39,16.39 z" /></g></g><g
         id="g4214"><g
           clip-path="url(#clipPath4218)"
           id="g4216"><path
             inkscape:connector-curvature="0"
             id="path4222"
             style="fill:none;stroke:#ffffff;stroke-width:1;stroke-linecap:butt;stroke-linejoin:miter;stroke-miterlimit:10;stroke-dasharray:none;stroke-opacity:1"
             d="m 339.11,402.62 c 3.31,5.74 10.65,7.71 16.39,4.39 5.74,-3.31 7.71,-10.65 4.39,-16.39 -3.31,-5.74 -10.65,-7.71 -16.39,-4.39 -5.74,3.31 -7.71,10.65 -4.39,16.39 z" /></g></g><g
         id="g4224"><g
           clip-path="url(#clipPath4228)"
           id="g4226"><path
             inkscape:connector-curvature="0"
             id="path4232"
             style="fill:#ffffff;fill-opacity:1;fill-rule:evenodd;stroke:none"
             d="m 219.92,471.43 c 3.31,5.74 10.65,7.71 16.39,4.39 5.74,-3.31 7.71,-10.65 4.4,-16.39 -3.32,-5.74 -10.66,-7.7 -16.4,-4.39 -5.74,3.31 -7.7,10.65 -4.39,16.39 z" /></g></g><g
         id="g4234"><g
           clip-path="url(#clipPath4238)"
           id="g4236"><path
             inkscape:connector-curvature="0"
             id="path4242"
             style="fill:none;stroke:#ffffff;stroke-width:1;stroke-linecap:butt;stroke-linejoin:miter;stroke-miterlimit:10;stroke-dasharray:none;stroke-opacity:1"
             d="m 219.92,471.43 c 3.31,5.74 10.65,7.71 16.39,4.39 5.74,-3.31 7.71,-10.65 4.4,-16.39 -3.32,-5.74 -10.66,-7.7 -16.4,-4.39 -5.74,3.31 -7.7,10.65 -4.39,16.39 z" /></g></g><g
         id="g4244"><g
           clip-path="url(#clipPath4248)"
           id="g4246"><path
             inkscape:connector-curvature="0"
             id="path4252"
             style="fill:#ffffff;fill-opacity:1;fill-rule:evenodd;stroke:none"
             d="m 317.19,381.45 c 5.74,3.31 13.08,1.35 16.39,-4.39 3.31,-5.74 1.35,-13.08 -4.39,-16.39 -5.74,-3.32 -13.08,-1.35 -16.39,4.39 -3.32,5.74 -1.35,13.08 4.39,16.39 z" /></g></g><g
         id="g4254"><g
           clip-path="url(#clipPath4258)"
           id="g4256"><path
             inkscape:connector-curvature="0"
             id="path4262"
             style="fill:none;stroke:#ffffff;stroke-width:1;stroke-linecap:butt;stroke-linejoin:miter;stroke-miterlimit:10;stroke-dasharray:none;stroke-opacity:1"
             d="m 317.19,381.45 c 5.74,3.31 13.08,1.35 16.39,-4.39 3.31,-5.74 1.35,-13.08 -4.39,-16.39 -5.74,-3.32 -13.08,-1.35 -16.39,4.39 -3.32,5.74 -1.35,13.08 4.39,16.39 z" /></g></g><g
         id="g4264"><g
           clip-path="url(#clipPath4268)"
           id="g4266"><path
             inkscape:connector-curvature="0"
             id="path4272"
             style="fill:#ffffff;fill-opacity:1;fill-rule:evenodd;stroke:none"
             d="m 248.38,500.64 c 5.74,3.31 13.07,1.34 16.39,-4.4 3.31,-5.74 1.35,-13.07 -4.39,-16.39 -5.74,-3.31 -13.08,-1.35 -16.4,4.39 -3.31,5.74 -1.34,13.08 4.4,16.4 z" /></g></g><g
         id="g4274"><g
           clip-path="url(#clipPath4278)"
           id="g4276"><path
             inkscape:connector-curvature="0"
             id="path4282"
             style="fill:none;stroke:#ffffff;stroke-width:1;stroke-linecap:butt;stroke-linejoin:miter;stroke-miterlimit:10;stroke-dasharray:none;stroke-opacity:1"
             d="m 248.38,500.64 c 5.74,3.31 13.07,1.34 16.39,-4.4 3.31,-5.74 1.35,-13.07 -4.39,-16.39 -5.74,-3.31 -13.08,-1.35 -16.4,4.39 -3.31,5.74 -1.34,13.08 4.4,16.4 z" /></g></g><g
         id="g4284"><g
           clip-path="url(#clipPath4288)"
           id="g4286"><path
             inkscape:connector-curvature="0"
             id="path4292"
             style="fill:#ffffff;fill-opacity:1;fill-rule:evenodd;stroke:none"
             d="m 291,375.72 c 6.63,0 12,-5.37 12,-12 0,-6.63 -5.37,-12 -12,-12 -6.63,0 -12,5.37 -12,12 0,6.63 5.37,12 12,12 z" /></g></g><g
         id="g4294"><g
           clip-path="url(#clipPath4298)"
           id="g4296"><path
             inkscape:connector-curvature="0"
             id="path4302"
             style="fill:none;stroke:#ffffff;stroke-width:0.95999998;stroke-linecap:butt;stroke-linejoin:miter;stroke-miterlimit:10;stroke-dasharray:none;stroke-opacity:1"
             d="m 291,375.72 c 6.63,0 12,-5.37 12,-12 0,-6.63 -5.37,-12 -12,-12 -6.63,0 -12,5.37 -12,12 0,6.63 5.37,12 12,12 z" /></g></g><g
         id="g4304"><g
           clip-path="url(#clipPath4308)"
           id="g4306"><path
             inkscape:connector-curvature="0"
             id="path4312"
             style="fill:#ffffff;fill-opacity:1;fill-rule:evenodd;stroke:none"
             d="m 291,513.36 c 6.63,0 12,-5.37 12,-12 0,-6.63 -5.37,-12 -12,-12 -6.63,0 -12,5.37 -12,12 0,6.63 5.37,12 12,12 z" /></g></g><g
         id="g4314"><g
           clip-path="url(#clipPath4318)"
           id="g4316"><path
             inkscape:connector-curvature="0"
             id="path4322"
             style="fill:none;stroke:#ffffff;stroke-width:0.95999998;stroke-linecap:butt;stroke-linejoin:miter;stroke-miterlimit:10;stroke-dasharray:none;stroke-opacity:1"
             d="m 291,513.36 c 6.63,0 12,-5.37 12,-12 0,-6.63 -5.37,-12 -12,-12 -6.63,0 -12,5.37 -12,12 0,6.63 5.37,12 12,12 z" /></g></g><g
         id="g4324"><g
           clip-path="url(#clipPath4328)"
           id="g4326"><path
             inkscape:connector-curvature="0"
             id="path4332"
             style="fill:#ffffff;fill-opacity:1;fill-rule:evenodd;stroke:none"
             d="m 261.13,383.7 c 5.74,-3.31 7.7,-10.65 4.39,-16.39 -3.32,-5.74 -10.65,-7.71 -16.39,-4.4 -5.74,3.32 -7.71,10.66 -4.4,16.4 3.32,5.74 10.66,7.7 16.4,4.39 z" /></g></g><g
         id="g4334"><g
           clip-path="url(#clipPath4338)"
           id="g4336"><path
             inkscape:connector-curvature="0"
             id="path4342"
             style="fill:none;stroke:#ffffff;stroke-width:1;stroke-linecap:butt;stroke-linejoin:miter;stroke-miterlimit:10;stroke-dasharray:none;stroke-opacity:1"
             d="m 261.13,383.7 c 5.74,-3.31 7.7,-10.65 4.39,-16.39 -3.32,-5.74 -10.65,-7.71 -16.39,-4.4 -5.74,3.32 -7.71,10.66 -4.4,16.4 3.32,5.74 10.66,7.7 16.4,4.39 z" /></g></g><g
         id="g4344"><g
           clip-path="url(#clipPath4348)"
           id="g4346"><path
             inkscape:connector-curvature="0"
             id="path4352"
             style="fill:#ffffff;fill-opacity:1;fill-rule:evenodd;stroke:none"
             d="m 329.94,502.89 c 5.74,-3.32 7.7,-10.66 4.39,-16.4 -3.31,-5.74 -10.65,-7.7 -16.39,-4.39 -5.74,3.32 -7.71,10.65 -4.39,16.39 3.31,5.74 10.65,7.71 16.39,4.4 z" /></g></g><g
         id="g4354"><g
           clip-path="url(#clipPath4358)"
           id="g4356"><path
             inkscape:connector-curvature="0"
             id="path4362"
             style="fill:none;stroke:#ffffff;stroke-width:1;stroke-linecap:butt;stroke-linejoin:miter;stroke-miterlimit:10;stroke-dasharray:none;stroke-opacity:1"
             d="m 329.94,502.89 c 5.74,-3.32 7.7,-10.66 4.39,-16.4 -3.31,-5.74 -10.65,-7.7 -16.39,-4.39 -5.74,3.32 -7.71,10.65 -4.39,16.39 3.31,5.74 10.65,7.71 16.39,4.4 z" /></g></g><g
         id="g4364"><g
           clip-path="url(#clipPath4368)"
           id="g4366"><path
             inkscape:connector-curvature="0"
             id="path4372"
             style="fill:#ffffff;fill-opacity:1;fill-rule:evenodd;stroke:none"
             d="m 241.08,404.49 c 3.31,-5.74 1.35,-13.07 -4.39,-16.39 -5.74,-3.31 -13.08,-1.35 -16.39,4.39 -3.32,5.74 -1.35,13.08 4.39,16.4 5.74,3.31 13.08,1.34 16.39,-4.4 z" /></g></g><g
         id="g4374"><g
           clip-path="url(#clipPath4378)"
           id="g4376"><path
             inkscape:connector-curvature="0"
             id="path4382"
             style="fill:none;stroke:#ffffff;stroke-width:1;stroke-linecap:butt;stroke-linejoin:miter;stroke-miterlimit:10;stroke-dasharray:none;stroke-opacity:1"
             d="m 241.08,404.49 c 3.31,-5.74 1.35,-13.07 -4.39,-16.39 -5.74,-3.31 -13.08,-1.35 -16.39,4.39 -3.32,5.74 -1.35,13.08 4.39,16.4 5.74,3.31 13.08,1.34 16.39,-4.4 z" /></g></g><g
         id="g4384"><g
           clip-path="url(#clipPath4388)"
           id="g4386"><path
             inkscape:connector-curvature="0"
             id="path4392"
             style="fill:#ffffff;fill-opacity:1;fill-rule:evenodd;stroke:none"
             d="m 360.27,473.31 c 3.31,-5.74 1.34,-13.08 -4.39,-16.4 -5.74,-3.31 -13.08,-1.34 -16.4,4.4 -3.31,5.74 -1.34,13.08 4.4,16.39 5.73,3.31 13.07,1.35 16.39,-4.39 z" /></g></g><g
         id="g4394"><g
           clip-path="url(#clipPath4398)"
           id="g4396"><path
             inkscape:connector-curvature="0"
             id="path4402"
             style="fill:none;stroke:#ffffff;stroke-width:1;stroke-linecap:butt;stroke-linejoin:miter;stroke-miterlimit:10;stroke-dasharray:none;stroke-opacity:1"
             d="m 360.27,473.31 c 3.31,-5.74 1.34,-13.08 -4.39,-16.4 -5.74,-3.31 -13.08,-1.34 -16.4,4.4 -3.31,5.74 -1.34,13.08 4.4,16.39 5.73,3.31 13.07,1.35 16.39,-4.39 z" /></g></g><path
         inkscape:connector-curvature="0"
         id="path4404"
         style="fill:#4087c4;fill-opacity:1;fill-rule:evenodd;stroke:none"
         d="m 73.8,429.36 c 0,16.83 13.646,30.48 30.48,30.48 16.83,0 30.48,-13.65 30.48,-30.48 0,-16.83 -13.65,-30.48 -30.48,-30.48 -16.834,0 -30.48,13.65 -30.48,30.48 z" /><path
         inkscape:connector-curvature="0"
         id="path4406"
         style="fill:#4087c4;fill-opacity:1;fill-rule:evenodd;stroke:none"
         d="m 98.76,455.04 h 10.92 v 10.8 H 98.76 Z" /><path
         inkscape:connector-curvature="0"
         id="path4408"
         style="fill:#4087c4;fill-opacity:1;fill-rule:evenodd;stroke:none"
         d="m 49.805,285.15 c 11.077,21.78 98.215,11.81 112.985,-2.22 14.77,-14.03 -3.69,-69.78 -24.37,-81.96 -20.68,-12.18 -60.553,-10.71 -75.323,3.32 -14.769,14.03 -24.369,59.07 -13.292,80.86 z" /><path
         inkscape:connector-curvature="0"
         id="path4410"
         style="fill:#4087c4;fill-opacity:1;fill-rule:evenodd;stroke:none"
         d="m 350.67,281.04 c -11.4,21.49 -100.39,16.09 -115.23,2.25 -14.83,-13.84 4.91,-73.26 26.21,-85.28 21.29,-12.02 61.61,-6.13 76.45,7.71 14.83,13.84 23.98,53.84 12.57,75.32 z" /></g></g></svg>