<?xml version="1.0" encoding="UTF-8" standalone="no"?>
<svg
   xmlns:dc="http://purl.org/dc/elements/1.1/"
   xmlns:cc="http://creativecommons.org/ns#"
   xmlns:rdf="http://www.w3.org/1999/02/22-rdf-syntax-ns#"
   xmlns:svg="http://www.w3.org/2000/svg"
   xmlns="http://www.w3.org/2000/svg"
   xmlns:xlink="http://www.w3.org/1999/xlink"
   xmlns:sodipodi="http://sodipodi.sourceforge.net/DTD/sodipodi-0.dtd"
   xmlns:inkscape="http://www.inkscape.org/namespaces/inkscape"
   viewBox="0 0 617.02198 116.792"
   height="116.792"
   width="617.02197"
   xml:space="preserve"
   id="svg2"
   version="1.1"
   sodipodi:docname="eDrawings.svg"
   inkscape:version="0.92.3 (2405546, 2018-03-11)"><sodipodi:namedview
     pagecolor="#ffffff"
     bordercolor="#666666"
     borderopacity="1"
     objecttolerance="10"
     gridtolerance="10"
     guidetolerance="10"
     inkscape:pageopacity="0"
     inkscape:pageshadow="2"
     inkscape:window-width="3110"
     inkscape:window-height="1697"
     id="namedview60"
     showgrid="false"
     inkscape:zoom="2.9288052"
     inkscape:cx="170.43842"
     inkscape:cy="63.550438"
     inkscape:window-x="90"
     inkscape:window-y="55"
     inkscape:window-maximized="1"
     inkscape:current-layer="svg2"
     fit-margin-top="0"
     fit-margin-left="0"
     fit-margin-right="0"
     fit-margin-bottom="0" /><metadata
     id="metadata8"><rdf:RDF><cc:Work
         rdf:about=""><dc:format>image/svg+xml</dc:format><dc:type
           rdf:resource="http://purl.org/dc/dcmitype/StillImage" /><dc:title></dc:title></cc:Work></rdf:RDF></metadata><defs
     id="defs6"><clipPath
       id="clipPath20"
       clipPathUnits="userSpaceOnUse"><path
         id="path18"
         d="M 0,90.72 H 479.52 V 0 H 0 Z"
         inkscape:connector-curvature="0" /></clipPath><linearGradient
       id="linearGradient46"
       spreadMethod="pad"
       gradientTransform="matrix(0,-87.59378,-87.59378,0,74.123375,89.044174)"
       gradientUnits="userSpaceOnUse"
       y2="0"
       x2="1"
       y1="0"
       x1="0"><stop
         id="stop42"
         offset="0"
         style="stop-opacity:1;stop-color:#cdfa73" /><stop
         id="stop44"
         offset="1"
         style="stop-opacity:1;stop-color:#a3bb67" /></linearGradient><linearGradient
       id="linearGradient66"
       spreadMethod="pad"
       gradientTransform="matrix(0,-52.868294,-52.868294,0,112.12442,71.68515)"
       gradientUnits="userSpaceOnUse"
       y2="0"
       x2="1"
       y1="0"
       x1="0"
       xlink:href="#linearGradient86"><stop
         id="stop62"
         offset="0"
         style="stop-opacity:1;stop-color:#cdfa73" /><stop
         id="stop64"
         offset="1"
         style="stop-opacity:1;stop-color:#a3bb67" /></linearGradient><linearGradient
       id="linearGradient86"
       spreadMethod="pad"
       gradientTransform="matrix(0,-16.656517,-16.656517,0,36.256374,56.348415)"
       gradientUnits="userSpaceOnUse"
       y2="0"
       x2="1"
       y1="0"
       x1="0"><stop
         id="stop82"
         offset="0"
         style="stop-opacity:1;stop-color:#cdfa73" /><stop
         id="stop84"
         offset="1"
         style="stop-opacity:1;stop-color:#a3bb67" /></linearGradient><clipPath
       id="clipPath96"
       clipPathUnits="userSpaceOnUse"><path
         id="path94"
         d="M 0,90.72 H 479.52 V 0 H 0 Z"
         inkscape:connector-curvature="0" /></clipPath></defs><g
     id="g30"
     transform="matrix(1.3333333,0,0,-1.3333333,-1.8546666,118.72533)"
     style="fill:#92badd;fill-opacity:1"><g
       id="g32"
       style="fill:#92badd;fill-opacity:1"><g
         id="g38"
         style="fill:#92badd;fill-opacity:1"><g
           id="g40"
           style="fill:#92badd;fill-opacity:1"><path
             inkscape:connector-curvature="0"
             d="m 72.045,1.45 h 4.157 v 87.594 h -4.157 z"
             style="fill:#92badd;fill-opacity:1;stroke:none"
             id="path48" /></g></g></g></g><g
     id="g52"
     transform="matrix(1.3333333,0,0,-1.3333333,-1.8546666,118.72533)"><path
       id="path68"
       style="fill:#92badd;fill-opacity:1;stroke:none"
       d="m 88.294,44.274 c 0,-15.092 9.376,-25.457 23.19,-25.457 v 0 c 8.014,0 17.615,3.701 24.471,9.2 v 0 l -5.064,7.348 c -3.69,-2.2 -5.169,-3.038 -7.486,-3.98 v 0 c -3.274,-1.364 -6.227,-1.991 -9.178,-1.991 v 0 c -7.28,0 -11.289,4.82 -11.921,14.146 v 0 h 33.015 v 2.627 c 0,16.252 -7.595,25.518 -21.307,25.518 v 0 c -14.974,0 -25.72,-11.465 -25.72,-27.411 m 25.086,18.88 c 5.657,0 8.861,-4.294 8.861,-11.603 v 0 l -19.727,-0.026 c 1.27,7.232 5.382,11.629 10.866,11.629"
       inkscape:connector-curvature="0" /></g><g
     id="g70"
     transform="matrix(1.3333333,0,0,-1.3333333,-1.8546666,118.72533)"
     style="fill:#92badd;fill-opacity:1"><g
       id="g72"
       style="fill:#92badd;fill-opacity:1"><g
         id="g78"
         style="fill:#92badd;fill-opacity:1"><g
           id="g80"
           style="fill:#92badd;fill-opacity:1"><path
             inkscape:connector-curvature="0"
             d="M 51.911,50.901 H 1.391 v -5.756 h 50.52 v -5.452 l 19.211,8.329 -19.211,8.326 z"
             style="fill:#92badd;fill-opacity:1;stroke:none"
             id="path88" /></g></g></g></g><g
     id="g98"
     transform="matrix(1.3333333,0,0,-1.3333333,242.20679,60.019731)"
     style="fill:#92badd;fill-opacity:1"><path
       inkscape:connector-curvature="0"
       d="m 0,0 c 0,12.786 -7.166,18.373 -16.974,18.373 h -9.831 v -37.284 h 9.084 C -7.753,-18.911 0,-13.533 0,0 m -4.127,-0.16 c 0,-10.71 -5.012,-14.97 -13.06,-14.97 h -5.491 v 29.727 h 5.384 c 8.582,0 13.167,-5.221 13.167,-14.757"
       style="fill:#92badd;fill-opacity:1;fill-rule:nonzero;stroke:none"
       id="path100" /></g><g
     id="g102"
     transform="matrix(1.3333333,0,0,-1.3333333,299.33373,49.561465)"
     style="fill:#92badd;fill-opacity:1"><path
       inkscape:connector-curvature="0"
       d="m 0,0 c 0,7.18 -5.033,10.529 -11.589,10.529 h -14.729 v -37.284 h 4.127 v 15.903 h 8.846 l 7.989,-15.903 h 4.774 l -8.182,16.223 C -3.439,-9.417 0,-5.798 0,0 m -4.127,-0.159 c 0,-4.684 -2.613,-6.971 -8.153,-6.971 h -9.911 V 6.753 h 10.443 c 4.954,0 7.621,-2.34 7.621,-6.912"
       style="fill:#92badd;fill-opacity:1;fill-rule:nonzero;stroke:none"
       id="path104" /></g><g
     id="g106"
     transform="matrix(1.3333333,0,0,-1.3333333,356.23026,85.234664)"
     style="fill:#92badd;fill-opacity:1"><path
       inkscape:connector-curvature="0"
       d="m 0,0 -12.95,37.345 h -4.585 L -30.49,0 h 4.266 l 3.248,9.509 H -7.57 L -4.368,0 Z m -8.85,13.282 h -12.842 l 4.102,12.165 c 0.908,2.616 1.973,5.976 2.346,7.472 0.375,-1.55 1.441,-4.911 2.294,-7.363 z"
       style="fill:#92badd;fill-opacity:1;fill-rule:nonzero;stroke:none"
       id="path108" /></g><g
     id="g110"
     transform="matrix(1.3333333,0,0,-1.3333333,413.00759,85.234664)"
     style="fill:#92badd;fill-opacity:1"><path
       inkscape:connector-curvature="0"
       d="m 0,0 h -4.693 l -5.863,23.889 c -0.586,2.458 -1.386,6.142 -1.809,8.438 -0.426,-2.296 -1.229,-5.871 -1.815,-8.438 L -20.043,0 h -4.582 l -7.467,37.345 h 4.159 l 4.373,-24.026 c 0.427,-2.456 1.067,-6.514 1.384,-8.332 0.322,1.818 1.175,5.822 1.76,8.225 l 5.915,24.133 h 4.478 l 5.914,-24.133 c 0.59,-2.403 1.441,-6.407 1.76,-8.225 0.322,1.818 0.961,5.876 1.388,8.332 L 3.41,37.345 h 4.051 z"
       style="fill:#92badd;fill-opacity:1;fill-rule:nonzero;stroke:none"
       id="path112" /></g><path
     inkscape:connector-curvature="0"
     d="m 442.71599,35.441332 h 5.50267 v 49.793332 h -5.50267 z"
     style="fill:#92badd;fill-opacity:1;fill-rule:nonzero;stroke:none;stroke-width:1.33333325"
     id="path114" /><g
     id="g116"
     transform="matrix(1.3333333,0,0,-1.3333333,503.46199,85.234664)"
     style="fill:#92badd;fill-opacity:1"><path
       inkscape:connector-curvature="0"
       d="m 0,0 -16.308,25.545 c -0.801,1.282 -2.185,3.738 -2.666,4.701 V 27.68 0 h -3.967 v 37.345 h 4.017 L -2.772,11.289 c 0.8,-1.282 2.187,-3.735 2.667,-4.697 V 9.153 37.345 H 3.861 V 0 Z"
       style="fill:#92badd;fill-opacity:1;fill-rule:nonzero;stroke:none"
       id="path118" /></g><g
     id="g120"
     transform="matrix(1.3333333,0,0,-1.3333333,548.48425,86.044531)"
     style="fill:#92badd;fill-opacity:1"><path
       inkscape:connector-curvature="0"
       d="m 0,0 c -9.14,0 -15.082,8.275 -15.082,19.228 0,11.076 6.214,19.275 15.242,19.275 5.126,0 8.972,-1.916 11.887,-5.962 L 8.759,30.039 c -2.403,3.25 -4.648,4.688 -8.708,4.688 -6.411,0 -11.008,-6.338 -11.008,-15.395 0,-9.13 4.811,-15.555 11.061,-15.555 6.252,0 9.67,3.855 9.67,11.196 V 15.29 H 3.043 v 3.833 h 10.754 v -3.62 C 13.797,5.17 7.906,0 0,0"
       style="fill:#92badd;fill-opacity:1;fill-rule:nonzero;stroke:none"
       id="path122" /></g><g
     id="g124"
     transform="matrix(1.3333333,0,0,-1.3333333,600.57799,86.044531)"
     style="fill:#92badd;fill-opacity:1"><path
       inkscape:connector-curvature="0"
       d="m 0,0 c -5.062,0 -9.574,2.179 -12.491,5.166 l 2.757,3.093 c 2.81,-2.722 6.059,-4.482 9.897,-4.482 4.949,0 8.043,2.453 8.043,6.404 0,3.467 -2.076,5.441 -8.899,7.895 -8.034,2.883 -10.732,5.495 -10.732,10.887 0,5.972 4.657,9.54 11.638,9.54 5.01,0 8.207,-1.489 11.328,-3.99 L 8.893,31.257 c -2.71,2.241 -5.215,3.47 -8.947,3.47 -5.114,0 -7.244,-2.563 -7.244,-5.497 0,-3.096 1.384,-4.857 8.846,-7.523 C 9.793,18.72 12.333,15.943 12.333,10.394 12.333,4.524 7.78,0 0,0"
       style="fill:#92badd;fill-opacity:1;fill-rule:nonzero;stroke:none"
       id="path126" /></g></svg>