<?xml version="1.0" encoding="UTF-8" standalone="no"?>
<!-- Created with Inkscape (http://www.inkscape.org/) -->

<svg
   xmlns:dc="http://purl.org/dc/elements/1.1/"
   xmlns:cc="http://creativecommons.org/ns#"
   xmlns:rdf="http://www.w3.org/1999/02/22-rdf-syntax-ns#"
   xmlns:svg="http://www.w3.org/2000/svg"
   xmlns="http://www.w3.org/2000/svg"
   xmlns:sodipodi="http://sodipodi.sourceforge.net/DTD/sodipodi-0.dtd"
   xmlns:inkscape="http://www.inkscape.org/namespaces/inkscape"
   id="svg3756"
   version="1.1"
   inkscape:version="0.91 r13725"
   xml:space="preserve"
   width="661.04688"
   height="648.60498"
   viewBox="0 0 661.04688 648.60498"
   sodipodi:docname="Info.svg"><metadata
     id="metadata3762"><rdf:RDF><cc:Work
         rdf:about=""><dc:format>image/svg+xml</dc:format><dc:type
           rdf:resource="http://purl.org/dc/dcmitype/StillImage" /><dc:title></dc:title></cc:Work></rdf:RDF></metadata><defs
     id="defs3760"><clipPath
       clipPathUnits="userSpaceOnUse"
       id="clipPath3770"><path
         d="m 0,1.2207e-4 960,0 0,539.99999793 -960,0 L 0,1.2207e-4 Z"
         id="path3772"
         inkscape:connector-curvature="0"
         style="clip-rule:evenodd" /></clipPath><clipPath
       clipPathUnits="userSpaceOnUse"
       id="clipPath3780"><path
         d="M -6.1035e-5,540 960,540 960,2.4414e-4 -3.0518e-5,1.8311e-4"
         id="path3782"
         inkscape:connector-curvature="0"
         style="clip-rule:evenodd" /></clipPath><clipPath
       clipPathUnits="userSpaceOnUse"
       id="clipPath3790"><path
         d="M -6.1035e-5,540 960,540 960,2.4414e-4 l -960.000061035,0"
         id="path3792"
         inkscape:connector-curvature="0"
         style="clip-rule:evenodd" /></clipPath><clipPath
       clipPathUnits="userSpaceOnUse"
       id="clipPath3800"><path
         d="M -6.1035e-5,540 960,540 960,1.8311e-4 -3.0518e-5,1.2207e-4"
         id="path3802"
         inkscape:connector-curvature="0"
         style="clip-rule:evenodd" /></clipPath><clipPath
       clipPathUnits="userSpaceOnUse"
       id="clipPath3810"><path
         d="M -1.5259e-5,540 960,540 960,1.2207e-4 -7.6294e-5,6.1035e-5"
         id="path3812"
         inkscape:connector-curvature="0"
         style="clip-rule:evenodd" /></clipPath></defs><sodipodi:namedview
     pagecolor="#ffffff"
     bordercolor="#666666"
     borderopacity="1"
     objecttolerance="10"
     gridtolerance="10"
     guidetolerance="10"
     inkscape:pageopacity="0"
     inkscape:pageshadow="2"
     inkscape:window-width="1366"
     inkscape:window-height="705"
     id="namedview3758"
     showgrid="false"
     fit-margin-top="0"
     fit-margin-left="0"
     fit-margin-right="0"
     fit-margin-bottom="0"
     inkscape:zoom="0.85259907"
     inkscape:cx="154.5908"
     inkscape:cy="324.30249"
     inkscape:window-x="-8"
     inkscape:window-y="-8"
     inkscape:window-maximized="1"
     inkscape:current-layer="g3764" /><g
     id="g3764"
     inkscape:groupmode="layer"
     inkscape:label="LogoRen"
     transform="matrix(1.25,0,0,-1.25,-255.025,669.79687)"><g
       id="g3776"><g
         id="g3778"
         clip-path="url(#clipPath3780)"><path
           d="m 473.97,521.58 c 19.01,19.01 49.83,19.01 68.84,0 L 718.6,345.78 c 19.01,-19.01 19.01,-49.82 0,-68.83 L 580.94,139.28 c -19.01,-19 -49.83,-19 -68.83,0 l -175.8,175.8 c -19.01,19.01 -19.01,49.83 0,68.83 l 137.66,137.67 z"
           style="fill:#4087c4;fill-opacity:1;fill-rule:evenodd;stroke:none"
           id="path3784"
           inkscape:connector-curvature="0" /></g></g><g
       id="g3786"><g
         id="g3788"
         clip-path="url(#clipPath3790)"><path
           d="m 480.05,493.17 c 15.92,15.92 41.74,15.92 57.66,0 L 690.19,340.69 c 15.93,-15.93 15.93,-41.74 0,-57.67 L 574.86,167.69 c -15.92,-15.92 -41.74,-15.92 -57.66,0 L 364.72,320.17 c -15.93,15.93 -15.93,41.75 0,57.67 l 115.33,115.33 z"
           style="fill:#ffffff;fill-opacity:1;fill-rule:evenodd;stroke:none"
           id="path3794"
           inkscape:connector-curvature="0" /></g></g><g
       id="g3796"><g
         id="g3798"
         clip-path="url(#clipPath3800)"><path
           d="m 268.87,326.43 c 3.43,3.43 9.01,3.43 12.45,0 L 513.5,94.248 c 3.43,-3.438 3.43,-9.013 0,-12.451 L 451.23,19.532 c -3.44,-3.438 -9.01,-3.438 -12.45,0 L 206.6,251.71 c -3.44,3.44 -3.44,9.01 0,12.45 l 62.27,62.27 z"
           style="fill:#4087c4;fill-opacity:1;fill-rule:evenodd;stroke:none"
           id="path3804"
           inkscape:connector-curvature="0" /></g></g><g
       id="g3806"><g
         id="g3808"
         clip-path="url(#clipPath3810)"><path
           d="m 251.62,285.03 c -0.94,-0.94 -0.94,-2.45 0,-3.39 l 64.75,-64.75 c 0.93,-0.94 2.45,-0.94 3.39,0 l 16.94,16.94 c 0.94,0.94 0.94,2.46 0,3.39 l -64.75,64.75 c -0.94,0.94 -2.45,0.94 -3.39,0 l -16.94,-16.94 z"
           style="fill:#ffffff;fill-opacity:1;fill-rule:evenodd;stroke:none"
           id="path3814"
           inkscape:connector-curvature="0" /></g></g><path
       d="m 360,163.56 c 0,7.03 6.04,12.72 13.5,12.72 7.46,0 13.5,-5.69 13.5,-12.72 0,-7.03 -6.04,-12.72 -13.5,-12.72 -7.46,0 -13.5,5.69 -13.5,12.72 z"
       style="fill:#ffffff;fill-opacity:1;fill-rule:evenodd;stroke:none"
       id="path3816"
       inkscape:connector-curvature="0" /><rect
       style="opacity:0.872;fill:#ffffff;fill-opacity:0.58823532;stroke:none;stroke-width:2.4000001;stroke-miterlimit:10;stroke-dasharray:7.2, 2.39999999999999990;stroke-dashoffset:0;stroke-opacity:1"
       id="rect4620"
       width="531.08203"
       height="517.94568"
       x="203.0817"
       y="-535.83752"
       transform="scale(1,-1)" /></g></svg>