<?xml version="1.0" encoding="UTF-8" standalone="no"?>
<!-- Created with Inkscape (http://www.inkscape.org/) -->

<svg
   xmlns:dc="http://purl.org/dc/elements/1.1/"
   xmlns:cc="http://creativecommons.org/ns#"
   xmlns:rdf="http://www.w3.org/1999/02/22-rdf-syntax-ns#"
   xmlns:svg="http://www.w3.org/2000/svg"
   xmlns="http://www.w3.org/2000/svg"
   xmlns:sodipodi="http://sodipodi.sourceforge.net/DTD/sodipodi-0.dtd"
   xmlns:inkscape="http://www.inkscape.org/namespaces/inkscape"
   id="svg3336"
   version="1.1"
   inkscape:version="0.91 r13725"
   xml:space="preserve"
   width="634.28589"
   height="634.29114"
   viewBox="0 0 634.28589 634.29114"
   sodipodi:docname="SI.svg"><metadata
     id="metadata3342"><rdf:RDF><cc:Work
         rdf:about=""><dc:format>image/svg+xml</dc:format><dc:type
           rdf:resource="http://purl.org/dc/dcmitype/StillImage" /><dc:title></dc:title></cc:Work></rdf:RDF></metadata><defs
     id="defs3340"><clipPath
       clipPathUnits="userSpaceOnUse"
       id="clipPath3350"><path
         d="m 0,1.2207e-4 960,0 0,539.99999793 -960,0 L 0,1.2207e-4 Z"
         id="path3352"
         inkscape:connector-curvature="0"
         style="clip-rule:evenodd" /></clipPath><clipPath
       clipPathUnits="userSpaceOnUse"
       id="clipPath3360"><path
         d="M -6.1035e-5,540 960,540 960,2.4414e-4 0,1.8311e-4"
         id="path3362"
         inkscape:connector-curvature="0"
         style="clip-rule:evenodd" /></clipPath><clipPath
       clipPathUnits="userSpaceOnUse"
       id="clipPath3370"><path
         d="M -6.1035e-5,540 960,540 960,2.4414e-4 0,1.8311e-4"
         id="path3372"
         inkscape:connector-curvature="0"
         style="clip-rule:evenodd" /></clipPath><clipPath
       clipPathUnits="userSpaceOnUse"
       id="clipPath3380"><path
         d="M -6.1035e-5,540 960,540 960,1.8311e-4 -3.0518e-5,1.2207e-4"
         id="path3382"
         inkscape:connector-curvature="0"
         style="clip-rule:evenodd" /></clipPath><clipPath
       clipPathUnits="userSpaceOnUse"
       id="clipPath3390"><path
         d="M -6.1035e-5,540 960,540 960,2.4414e-4 -3.0518e-5,1.8311e-4"
         id="path3392"
         inkscape:connector-curvature="0"
         style="clip-rule:evenodd" /></clipPath><clipPath
       clipPathUnits="userSpaceOnUse"
       id="clipPath3400"><path
         d="M -6.1035e-5,540 960,540 960,2.4414e-4 0,1.8311e-4"
         id="path3402"
         inkscape:connector-curvature="0"
         style="clip-rule:evenodd" /></clipPath><clipPath
       clipPathUnits="userSpaceOnUse"
       id="clipPath3410"><path
         d="M -6.1035e-5,540 960,540 960,2.4414e-4 0,1.8311e-4"
         id="path3412"
         inkscape:connector-curvature="0"
         style="clip-rule:evenodd" /></clipPath><clipPath
       clipPathUnits="userSpaceOnUse"
       id="clipPath3420"><path
         d="M -6.1035e-5,540 960,540 960,2.4414e-4 0,1.8311e-4"
         id="path3422"
         inkscape:connector-curvature="0"
         style="clip-rule:evenodd" /></clipPath><clipPath
       clipPathUnits="userSpaceOnUse"
       id="clipPath3430"><path
         d="M -6.1035e-5,540 960,540 960,2.4414e-4 0,1.8311e-4"
         id="path3432"
         inkscape:connector-curvature="0"
         style="clip-rule:evenodd" /></clipPath><clipPath
       clipPathUnits="userSpaceOnUse"
       id="clipPath3440"><path
         d="M -6.1035e-5,540 960,540 960,2.4414e-4 0,1.8311e-4"
         id="path3442"
         inkscape:connector-curvature="0"
         style="clip-rule:evenodd" /></clipPath><clipPath
       clipPathUnits="userSpaceOnUse"
       id="clipPath3450"><path
         d="M -6.1035e-5,540 960,540 960,2.4414e-4 0,1.8311e-4"
         id="path3452"
         inkscape:connector-curvature="0"
         style="clip-rule:evenodd" /></clipPath><clipPath
       clipPathUnits="userSpaceOnUse"
       id="clipPath3460"><path
         d="M -6.1035e-5,540 960,540 960,2.4414e-4 0,1.8311e-4"
         id="path3462"
         inkscape:connector-curvature="0"
         style="clip-rule:evenodd" /></clipPath><clipPath
       clipPathUnits="userSpaceOnUse"
       id="clipPath3470"><path
         d="M -6.1035e-5,540 960,540 960,2.4414e-4 0,1.8311e-4"
         id="path3472"
         inkscape:connector-curvature="0"
         style="clip-rule:evenodd" /></clipPath><clipPath
       clipPathUnits="userSpaceOnUse"
       id="clipPath3480"><path
         d="M -1.2207e-4,540 960,540 960,1.8311e-4 -1.2207e-4,1.2207e-4"
         id="path3482"
         inkscape:connector-curvature="0"
         style="clip-rule:evenodd" /></clipPath><clipPath
       clipPathUnits="userSpaceOnUse"
       id="clipPath3490"><path
         d="M -1.2207e-4,540 960,540 960,1.8311e-4 -1.2207e-4,1.2207e-4"
         id="path3492"
         inkscape:connector-curvature="0"
         style="clip-rule:evenodd" /></clipPath><clipPath
       clipPathUnits="userSpaceOnUse"
       id="clipPath3500"><path
         d="M -1.2207e-4,540 960,540 960,2.4414e-4 -1.2207e-4,1.2207e-4"
         id="path3502"
         inkscape:connector-curvature="0"
         style="clip-rule:evenodd" /></clipPath><clipPath
       clipPathUnits="userSpaceOnUse"
       id="clipPath3510"><path
         d="M -1.2207e-4,540 960,540 960,2.4414e-4 -1.2207e-4,1.2207e-4"
         id="path3512"
         inkscape:connector-curvature="0"
         style="clip-rule:evenodd" /></clipPath><clipPath
       clipPathUnits="userSpaceOnUse"
       id="clipPath3520"><path
         d="M -1.2207e-4,540 960,540 960,1.2207e-4 l -960.00012207,0"
         id="path3522"
         inkscape:connector-curvature="0"
         style="clip-rule:evenodd" /></clipPath><clipPath
       clipPathUnits="userSpaceOnUse"
       id="clipPath3530"><path
         d="M -1.2207e-4,540 960,540 960,1.2207e-4 l -960.00012207,0"
         id="path3532"
         inkscape:connector-curvature="0"
         style="clip-rule:evenodd" /></clipPath><clipPath
       clipPathUnits="userSpaceOnUse"
       id="clipPath3540"><path
         d="M -6.1035e-5,540 960,540 960,1.2207e-4 l -960.000061035,0"
         id="path3542"
         inkscape:connector-curvature="0"
         style="clip-rule:evenodd" /></clipPath><clipPath
       clipPathUnits="userSpaceOnUse"
       id="clipPath3550"><path
         d="M -6.1035e-5,540 960,540 960,1.2207e-4 l -960.000061035,0"
         id="path3552"
         inkscape:connector-curvature="0"
         style="clip-rule:evenodd" /></clipPath><clipPath
       clipPathUnits="userSpaceOnUse"
       id="clipPath3560"><path
         d="M -6.1035e-5,540 960,540 960,6.1035e-5 l -960,0"
         id="path3562"
         inkscape:connector-curvature="0"
         style="clip-rule:evenodd" /></clipPath><clipPath
       clipPathUnits="userSpaceOnUse"
       id="clipPath3570"><path
         d="M -6.1035e-5,540 960,540 960,6.1035e-5 l -960,0"
         id="path3572"
         inkscape:connector-curvature="0"
         style="clip-rule:evenodd" /></clipPath><clipPath
       clipPathUnits="userSpaceOnUse"
       id="clipPath3580"><path
         d="M -1.2207e-4,540 960,540 960,6.1035e-5 l -960.000061035,0"
         id="path3582"
         inkscape:connector-curvature="0"
         style="clip-rule:evenodd" /></clipPath><clipPath
       clipPathUnits="userSpaceOnUse"
       id="clipPath3590"><path
         d="M -1.2207e-4,540 960,540 960,6.1035e-5 l -960.000061035,0"
         id="path3592"
         inkscape:connector-curvature="0"
         style="clip-rule:evenodd" /></clipPath><clipPath
       clipPathUnits="userSpaceOnUse"
       id="clipPath3600"><path
         d="M -6.1035e-5,540 960,540 960,6.1035e-5 l -960.000061035,0"
         id="path3602"
         inkscape:connector-curvature="0"
         style="clip-rule:evenodd" /></clipPath><clipPath
       clipPathUnits="userSpaceOnUse"
       id="clipPath3610"><path
         d="M -6.1035e-5,540 960,540 960,6.1035e-5 l -960.000061035,0"
         id="path3612"
         inkscape:connector-curvature="0"
         style="clip-rule:evenodd" /></clipPath><clipPath
       clipPathUnits="userSpaceOnUse"
       id="clipPath3620"><path
         d="M -1.2207e-4,540 960,540 960,0 -6.1035e-5,0"
         id="path3622"
         inkscape:connector-curvature="0"
         style="clip-rule:evenodd" /></clipPath><clipPath
       clipPathUnits="userSpaceOnUse"
       id="clipPath3630"><path
         d="M -1.2207e-4,540 960,540 960,0 -6.1035e-5,0"
         id="path3632"
         inkscape:connector-curvature="0"
         style="clip-rule:evenodd" /></clipPath><clipPath
       clipPathUnits="userSpaceOnUse"
       id="clipPath3640"><path
         d="M -6.1035e-5,540 960,540 960,0 -6.1035e-5,6.1035e-5"
         id="path3642"
         inkscape:connector-curvature="0"
         style="clip-rule:evenodd" /></clipPath><clipPath
       clipPathUnits="userSpaceOnUse"
       id="clipPath3650"><path
         d="M -6.1035e-5,540 960,540 960,0 -6.1035e-5,6.1035e-5"
         id="path3652"
         inkscape:connector-curvature="0"
         style="clip-rule:evenodd" /></clipPath><clipPath
       clipPathUnits="userSpaceOnUse"
       id="clipPath3660"><path
         d="M -1.2207e-4,540 960,540 960,-6.1035e-5 -1.2207e-4,0"
         id="path3662"
         inkscape:connector-curvature="0"
         style="clip-rule:evenodd" /></clipPath><clipPath
       clipPathUnits="userSpaceOnUse"
       id="clipPath3670"><path
         d="M -1.2207e-4,540 960,540 960,-6.1035e-5 -1.2207e-4,0"
         id="path3672"
         inkscape:connector-curvature="0"
         style="clip-rule:evenodd" /></clipPath><clipPath
       clipPathUnits="userSpaceOnUse"
       id="clipPath3680"><path
         d="M -1.2207e-4,540 960,540 960,-6.1035e-5 l -960.000061035,0"
         id="path3682"
         inkscape:connector-curvature="0"
         style="clip-rule:evenodd" /></clipPath><clipPath
       clipPathUnits="userSpaceOnUse"
       id="clipPath3690"><path
         d="M -1.2207e-4,540 960,540 960,-6.1035e-5 l -960.000061035,0"
         id="path3692"
         inkscape:connector-curvature="0"
         style="clip-rule:evenodd" /></clipPath><clipPath
       clipPathUnits="userSpaceOnUse"
       id="clipPath3700"><path
         d="M -1.8311e-4,540 960,540 960,0 -1.2207e-4,0"
         id="path3702"
         inkscape:connector-curvature="0"
         style="clip-rule:evenodd" /></clipPath><clipPath
       clipPathUnits="userSpaceOnUse"
       id="clipPath3710"><path
         d="M -1.8311e-4,540 960,540 960,0 -1.2207e-4,0"
         id="path3712"
         inkscape:connector-curvature="0"
         style="clip-rule:evenodd" /></clipPath><clipPath
       clipPathUnits="userSpaceOnUse"
       id="clipPath3720"><path
         d="M -9.1553e-5,540 960,540 960,1.8311e-4 -3.0518e-5,1.2207e-4"
         id="path3722"
         inkscape:connector-curvature="0"
         style="clip-rule:evenodd" /></clipPath><clipPath
       clipPathUnits="userSpaceOnUse"
       id="clipPath3730"><path
         d="M -6.1035e-5,540 960,540 960,1.8311e-4 -6.1035e-5,1.2207e-4"
         id="path3732"
         inkscape:connector-curvature="0"
         style="clip-rule:evenodd" /></clipPath><clipPath
       clipPathUnits="userSpaceOnUse"
       id="clipPath3740"><path
         d="M -6.1035e-5,540 960,540 960,1.8311e-4 -3.0518e-5,1.2207e-4"
         id="path3742"
         inkscape:connector-curvature="0"
         style="clip-rule:evenodd" /></clipPath><clipPath
       clipPathUnits="userSpaceOnUse"
       id="clipPath3750"><path
         d="M -1.8311e-4,540 960,540 960,0 -1.2207e-4,1.2207e-4"
         id="path3752"
         inkscape:connector-curvature="0"
         style="clip-rule:evenodd" /></clipPath></defs><sodipodi:namedview
     pagecolor="#ffffff"
     bordercolor="#666666"
     borderopacity="1"
     objecttolerance="10"
     gridtolerance="10"
     guidetolerance="10"
     inkscape:pageopacity="0"
     inkscape:pageshadow="2"
     inkscape:window-width="1366"
     inkscape:window-height="705"
     id="namedview3338"
     showgrid="false"
     fit-margin-top="0"
     fit-margin-left="0"
     fit-margin-right="0"
     fit-margin-bottom="0"
     inkscape:zoom="0.81925926"
     inkscape:cx="117.3337"
     inkscape:cy="316.47011"
     inkscape:window-x="-8"
     inkscape:window-y="-8"
     inkscape:window-maximized="1"
     inkscape:current-layer="g3344" /><g
     id="g3344"
     inkscape:groupmode="layer"
     inkscape:label="LogoRen"
     transform="matrix(1.25,0,0,-1.25,-278.21332,655.321)"><g
       id="g3356"><g
         id="g3358"
         clip-path="url(#clipPath3360)"><path
           d="m 429.51,504.38 c 25.83,25.84 67.71,25.84 93.54,0 L 710.13,317.31 c 25.83,-25.83 25.83,-67.71 0,-93.54 L 523.05,36.694 c -25.83,-25.831 -67.71,-25.831 -93.54,0 L 242.44,223.77 c -25.83,25.83 -25.83,67.71 0,93.54 l 187.07,187.07 z"
           style="fill:#4087c4;fill-opacity:1;fill-rule:evenodd;stroke:none"
           id="path3364"
           inkscape:connector-curvature="0" /></g></g><g
       id="g3366"><g
         id="g3368"
         clip-path="url(#clipPath3370)"><path
           d="m 429.51,504.38 c 25.83,25.84 67.71,25.84 93.54,0 L 710.13,317.31 c 25.83,-25.83 25.83,-67.71 0,-93.54 L 523.05,36.694 c -25.83,-25.831 -67.71,-25.831 -93.54,0 L 242.44,223.77 c -25.83,25.83 -25.83,67.71 0,93.54 l 187.07,187.07 z"
           style="fill:none;stroke:#4087c4;stroke-width:1;stroke-linecap:butt;stroke-linejoin:miter;stroke-miterlimit:10;stroke-dasharray:none;stroke-opacity:1"
           id="path3374"
           inkscape:connector-curvature="0" /></g></g><g
       id="g3376"><g
         id="g3378"
         clip-path="url(#clipPath3380)"><path
           d="m 396.68,309.74 c 12.12,-15.14 27.47,-43.98 38.3,-57.85 10.83,-13.88 12.59,-13.99 26.68,-25.41 14.09,-11.41 40.47,-25.58 57.85,-43.08 17.38,-17.49 37.6,-49.22 46.43,-61.88 8.83,-12.65 7.94,-9.23 6.56,-14.05 -1.38,-4.81 -9.89,-12.689 -14.82,-14.819 -4.94,-2.13 -5.77,6.404 -14.8,2.043 -9.02,-4.362 -25.19,-24.058 -39.35,-28.212 -14.15,-4.154 -29.52,-4.285 -45.59,3.29 -16.06,7.576 -43.08,26.083 -50.8,42.158 -7.72,16.08 -0.29,40.39 4.49,54.31 4.78,13.92 16.44,27.8 19.42,37.16 2.98,9.37 2.31,16.01 -1.54,19.01 -3.86,3 -10.05,2.44 -21.58,-1.03 -11.54,-3.47 -33.11,-16.79 -47.63,-19.79 -14.53,-3.01 -26.69,-3.98 -39.5,1.77 -12.81,5.76 -28.65,20.64 -37.37,32.75 -8.72,12.11 -15.87,26.51 -14.93,39.9 0.94,13.4 14.46,30.04 20.59,40.46 6.13,10.41 14.71,16.29 16.2,22.03 1.48,5.73 -1.94,13.99 -1.11,16.41 0.83,2.42 10.14,11.2 12.83,11.77 2.68,0.56 2.7,-1.73 10.11,-6.03 7.41,-4.31 22.61,-8 35.14,-17.93 12.53,-9.93 22.3,-17.85 34.42,-32.98 z"
           style="fill:#ffffff;fill-opacity:1;fill-rule:evenodd;stroke:none"
           id="path3384"
           inkscape:connector-curvature="0" /></g></g><g
       id="g3386"><g
         id="g3388"
         clip-path="url(#clipPath3390)"><path
           d="m 528.52,456.18 c 6.8,-7.96 15.47,4.15 22.54,-6.63 7.07,-10.78 -7.12,-9.77 -3.98,-21.48 3.14,-11.71 16.71,-3.09 18.03,-18.56 1.33,-15.47 -12.9,-12.02 -13.52,-18.83 -0.62,-6.8 14.76,-9.81 9.81,-22.01 -4.95,-12.19 -14.14,-2.83 -21.21,-12.72 -7.08,-9.9 9.81,-12.29 -2.13,-24.93 -11.93,-12.64 -12.72,6.54 -23.07,0.26 -10.34,-6.27 -0.04,-16.13 -12.72,-21.21 -12.69,-5.08 -8.66,10.25 -18.83,9.81 -10.16,-0.44 -9.28,-16.35 -21.74,-14.85 -12.47,1.51 -5.84,15.38 -16.71,18.83 -10.87,3.45 -9.01,-12.2 -22.27,-4.77 -13.26,7.42 -0.8,13.34 -7.16,23.07 -6.37,9.72 -15.47,-5.4 -23.07,7.69 -7.6,13.08 7.95,12.19 4.51,21.47 -3.45,9.29 -17.59,7.34 -19.89,18.3 -2.3,10.96 12.9,8.49 15.38,18.56 2.47,10.08 -15.56,11.85 -10.08,23.87 5.48,12.02 17.24,2.21 21.22,10.6 3.97,8.4 -10.12,11.27 0.79,23.6 10.92,12.33 12.95,-6.14 23.34,-0.53 10.38,5.62 1.23,17.5 11.93,23.07 10.69,5.57 15.42,-9.59 22.54,-8.75 7.11,0.84 8.39,15.82 20.15,13.79 11.76,-2.03 7.82,-16.75 16.17,-18.83 8.36,-2.07 14.9,11.36 24.4,3.19 9.5,-8.18 -1.24,-14.06 5.57,-22.01 z"
           style="fill:#ffffff;fill-opacity:1;fill-rule:evenodd;stroke:none"
           id="path3394"
           inkscape:connector-curvature="0" /></g></g><g
       id="g3396"><g
         id="g3398"
         clip-path="url(#clipPath3400)"><path
           d="m 544.69,330.22 c 33.54,33.54 87.91,33.54 121.45,0 33.54,-33.53 33.54,-87.91 0,-121.44 -33.54,-33.54 -87.91,-33.54 -121.45,0 -33.53,33.53 -33.53,87.91 0,121.44 z"
           style="fill:#ffffff;fill-opacity:1;fill-rule:evenodd;stroke:none"
           id="path3404"
           inkscape:connector-curvature="0" /></g></g><g
       id="g3406"><g
         id="g3408"
         clip-path="url(#clipPath3410)"><path
           d="m 544.69,330.22 c 33.54,33.54 87.91,33.54 121.45,0 33.54,-33.53 33.54,-87.91 0,-121.44 -33.54,-33.54 -87.91,-33.54 -121.45,0 -33.53,33.53 -33.53,87.91 0,121.44 z"
           style="fill:none;stroke:#ffffff;stroke-width:1;stroke-linecap:butt;stroke-linejoin:miter;stroke-miterlimit:10;stroke-dasharray:none;stroke-opacity:1"
           id="path3414"
           inkscape:connector-curvature="0" /></g></g><g
       id="g3416"><g
         id="g3418"
         clip-path="url(#clipPath3420)"><path
           d="m 547.35,327.57 c 32.07,32.07 84.07,32.07 116.14,0 32.07,-32.07 32.07,-84.07 0,-116.14 -32.07,-32.07 -84.07,-32.07 -116.14,0 -32.08,32.07 -32.08,84.07 0,116.14 z"
           style="fill:#4087c4;fill-opacity:1;fill-rule:evenodd;stroke:none"
           id="path3424"
           inkscape:connector-curvature="0" /></g></g><g
       id="g3426"><g
         id="g3428"
         clip-path="url(#clipPath3430)"><path
           d="m 547.35,327.57 c 32.07,32.07 84.07,32.07 116.14,0 32.07,-32.07 32.07,-84.07 0,-116.14 -32.07,-32.07 -84.07,-32.07 -116.14,0 -32.08,32.07 -32.08,84.07 0,116.14 z"
           style="fill:none;stroke:#ffffff;stroke-width:1;stroke-linecap:butt;stroke-linejoin:miter;stroke-miterlimit:10;stroke-dasharray:none;stroke-opacity:1"
           id="path3434"
           inkscape:connector-curvature="0" /></g></g><g
       id="g3436"><g
         id="g3438"
         clip-path="url(#clipPath3440)"><path
           d="m 566.17,308.75 c 21.68,21.67 56.82,21.67 78.49,0 21.67,-21.68 21.67,-56.82 0,-78.49 -21.67,-21.68 -56.81,-21.68 -78.49,0 -21.67,21.67 -21.67,56.81 0,78.49 z"
           style="fill:#ffffff;fill-opacity:1;fill-rule:evenodd;stroke:none"
           id="path3444"
           inkscape:connector-curvature="0" /></g></g><g
       id="g3446"><g
         id="g3448"
         clip-path="url(#clipPath3450)"><path
           d="m 566.17,308.75 c 21.68,21.67 56.82,21.67 78.49,0 21.67,-21.68 21.67,-56.82 0,-78.49 -21.67,-21.68 -56.81,-21.68 -78.49,0 -21.67,21.67 -21.67,56.81 0,78.49 z"
           style="fill:none;stroke:#ffffff;stroke-width:1;stroke-linecap:butt;stroke-linejoin:miter;stroke-miterlimit:10;stroke-dasharray:none;stroke-opacity:1"
           id="path3454"
           inkscape:connector-curvature="0" /></g></g><g
       id="g3456"><g
         id="g3458"
         clip-path="url(#clipPath3460)"><path
           d="m 569.62,305.3 c 19.77,19.77 51.82,19.77 71.59,0 19.77,-19.77 19.77,-51.83 0,-71.6 -19.77,-19.77 -51.82,-19.77 -71.59,0 -19.77,19.77 -19.77,51.83 0,71.6 z"
           style="fill:#4087c4;fill-opacity:1;fill-rule:evenodd;stroke:none"
           id="path3464"
           inkscape:connector-curvature="0" /></g></g><g
       id="g3466"><g
         id="g3468"
         clip-path="url(#clipPath3470)"><path
           d="m 569.62,305.3 c 19.77,19.77 51.82,19.77 71.59,0 19.77,-19.77 19.77,-51.83 0,-71.6 -19.77,-19.77 -51.82,-19.77 -71.59,0 -19.77,19.77 -19.77,51.83 0,71.6 z"
           style="fill:none;stroke:#ffffff;stroke-width:1;stroke-linecap:butt;stroke-linejoin:miter;stroke-miterlimit:10;stroke-dasharray:none;stroke-opacity:1"
           id="path3474"
           inkscape:connector-curvature="0" /></g></g><g
       id="g3476"><g
         id="g3478"
         clip-path="url(#clipPath3480)"><path
           d="m 645.72,229.2 c 4.69,4.68 12.29,4.68 16.97,0 4.69,-4.69 4.69,-12.29 0,-16.97 -4.68,-4.69 -12.28,-4.69 -16.97,0 -4.69,4.68 -4.69,12.28 0,16.97 z"
           style="fill:#ffffff;fill-opacity:1;fill-rule:evenodd;stroke:none"
           id="path3484"
           inkscape:connector-curvature="0" /></g></g><g
       id="g3486"><g
         id="g3488"
         clip-path="url(#clipPath3490)"><path
           d="m 645.72,229.2 c 4.69,4.68 12.29,4.68 16.97,0 4.69,-4.69 4.69,-12.29 0,-16.97 -4.68,-4.69 -12.28,-4.69 -16.97,0 -4.69,4.68 -4.69,12.28 0,16.97 z"
           style="fill:none;stroke:#ffffff;stroke-width:1;stroke-linecap:butt;stroke-linejoin:miter;stroke-miterlimit:10;stroke-dasharray:none;stroke-opacity:1"
           id="path3494"
           inkscape:connector-curvature="0" /></g></g><g
       id="g3496"><g
         id="g3498"
         clip-path="url(#clipPath3500)"><path
           d="m 548.41,326.51 c 4.68,4.69 12.28,4.69 16.97,0 4.68,-4.68 4.68,-12.28 0,-16.97 -4.69,-4.69 -12.29,-4.69 -16.97,0 -4.69,4.69 -4.69,12.29 0,16.97 z"
           style="fill:#ffffff;fill-opacity:1;fill-rule:evenodd;stroke:none"
           id="path3504"
           inkscape:connector-curvature="0" /></g></g><g
       id="g3506"><g
         id="g3508"
         clip-path="url(#clipPath3510)"><path
           d="m 548.41,326.51 c 4.68,4.69 12.28,4.69 16.97,0 4.68,-4.68 4.68,-12.28 0,-16.97 -4.69,-4.69 -12.29,-4.69 -16.97,0 -4.69,4.69 -4.69,12.29 0,16.97 z"
           style="fill:none;stroke:#ffffff;stroke-width:1;stroke-linecap:butt;stroke-linejoin:miter;stroke-miterlimit:10;stroke-dasharray:none;stroke-opacity:1"
           id="path3514"
           inkscape:connector-curvature="0" /></g></g><g
       id="g3516"><g
         id="g3518"
         clip-path="url(#clipPath3520)"><path
           d="m 618.93,214.23 c 6.4,1.71 12.98,-2.09 14.69,-8.49 1.72,-6.4 -2.08,-12.98 -8.48,-14.7 -6.4,-1.71 -12.98,2.09 -14.7,8.49 -1.71,6.4 2.09,12.98 8.49,14.7 z"
           style="fill:#ffffff;fill-opacity:1;fill-rule:evenodd;stroke:none"
           id="path3524"
           inkscape:connector-curvature="0" /></g></g><g
       id="g3526"><g
         id="g3528"
         clip-path="url(#clipPath3530)"><path
           d="m 618.93,214.23 c 6.4,1.71 12.98,-2.09 14.69,-8.49 1.72,-6.4 -2.08,-12.98 -8.48,-14.7 -6.4,-1.71 -12.98,2.09 -14.7,8.49 -1.71,6.4 2.09,12.98 8.49,14.7 z"
           style="fill:none;stroke:#ffffff;stroke-width:1;stroke-linecap:butt;stroke-linejoin:miter;stroke-miterlimit:10;stroke-dasharray:none;stroke-opacity:1"
           id="path3534"
           inkscape:connector-curvature="0" /></g></g><g
       id="g3536"><g
         id="g3538"
         clip-path="url(#clipPath3540)"><path
           d="m 583.31,347.16 c 6.4,1.72 12.98,-2.08 14.69,-8.48 1.72,-6.4 -2.08,-12.98 -8.48,-14.7 -6.4,-1.72 -12.98,2.08 -14.7,8.49 -1.71,6.4 2.09,12.98 8.49,14.69 z"
           style="fill:#ffffff;fill-opacity:1;fill-rule:evenodd;stroke:none"
           id="path3544"
           inkscape:connector-curvature="0" /></g></g><g
       id="g3546"><g
         id="g3548"
         clip-path="url(#clipPath3550)"><path
           d="m 583.31,347.16 c 6.4,1.72 12.98,-2.08 14.69,-8.48 1.72,-6.4 -2.08,-12.98 -8.48,-14.7 -6.4,-1.72 -12.98,2.08 -14.7,8.49 -1.71,6.4 2.09,12.98 8.49,14.69 z"
           style="fill:none;stroke:#ffffff;stroke-width:1;stroke-linecap:butt;stroke-linejoin:miter;stroke-miterlimit:10;stroke-dasharray:none;stroke-opacity:1"
           id="path3554"
           inkscape:connector-curvature="0" /></g></g><g
       id="g3556"><g
         id="g3558"
         clip-path="url(#clipPath3560)"><path
           d="m 588.46,214.76 c 6.4,-1.72 10.2,-8.3 8.48,-14.7 -1.71,-6.4 -8.29,-10.2 -14.69,-8.49 -6.41,1.72 -10.2,8.3 -8.49,14.7 1.72,6.4 8.3,10.2 14.7,8.49 z"
           style="fill:#ffffff;fill-opacity:1;fill-rule:evenodd;stroke:none"
           id="path3564"
           inkscape:connector-curvature="0" /></g></g><g
       id="g3566"><g
         id="g3568"
         clip-path="url(#clipPath3570)"><path
           d="m 588.46,214.76 c 6.4,-1.72 10.2,-8.3 8.48,-14.7 -1.71,-6.4 -8.29,-10.2 -14.69,-8.49 -6.41,1.72 -10.2,8.3 -8.49,14.7 1.72,6.4 8.3,10.2 14.7,8.49 z"
           style="fill:none;stroke:#ffffff;stroke-width:1;stroke-linecap:butt;stroke-linejoin:miter;stroke-miterlimit:10;stroke-dasharray:none;stroke-opacity:1"
           id="path3574"
           inkscape:connector-curvature="0" /></g></g><g
       id="g3576"><g
         id="g3578"
         clip-path="url(#clipPath3580)"><path
           d="m 624.08,347.69 c 6.4,-1.71 10.2,-8.29 8.48,-14.69 -1.71,-6.41 -8.29,-10.2 -14.69,-8.49 -6.41,1.72 -10.2,8.3 -8.49,14.7 1.72,6.4 8.3,10.2 14.7,8.48 z"
           style="fill:#ffffff;fill-opacity:1;fill-rule:evenodd;stroke:none"
           id="path3584"
           inkscape:connector-curvature="0" /></g></g><g
       id="g3586"><g
         id="g3588"
         clip-path="url(#clipPath3590)"><path
           d="m 624.08,347.69 c 6.4,-1.71 10.2,-8.29 8.48,-14.69 -1.71,-6.41 -8.29,-10.2 -14.69,-8.49 -6.41,1.72 -10.2,8.3 -8.49,14.7 1.72,6.4 8.3,10.2 14.7,8.48 z"
           style="fill:none;stroke:#ffffff;stroke-width:1;stroke-linecap:butt;stroke-linejoin:miter;stroke-miterlimit:10;stroke-dasharray:none;stroke-opacity:1"
           id="path3594"
           inkscape:connector-curvature="0" /></g></g><g
       id="g3596"><g
         id="g3598"
         clip-path="url(#clipPath3600)"><path
           d="m 565.91,229.2 c 4.68,-4.69 4.68,-12.29 0,-16.97 -4.69,-4.69 -12.29,-4.69 -16.97,0 -4.69,4.68 -4.69,12.28 0,16.97 4.68,4.68 12.28,4.68 16.97,0 z"
           style="fill:#ffffff;fill-opacity:1;fill-rule:evenodd;stroke:none"
           id="path3604"
           inkscape:connector-curvature="0" /></g></g><g
       id="g3606"><g
         id="g3608"
         clip-path="url(#clipPath3610)"><path
           d="m 565.91,229.2 c 4.68,-4.69 4.68,-12.29 0,-16.97 -4.69,-4.69 -12.29,-4.69 -16.97,0 -4.69,4.68 -4.69,12.28 0,16.97 4.68,4.68 12.28,4.68 16.97,0 z"
           style="fill:none;stroke:#ffffff;stroke-width:1;stroke-linecap:butt;stroke-linejoin:miter;stroke-miterlimit:10;stroke-dasharray:none;stroke-opacity:1"
           id="path3614"
           inkscape:connector-curvature="0" /></g></g><g
       id="g3616"><g
         id="g3618"
         clip-path="url(#clipPath3620)"><path
           d="m 663.22,326.51 c 4.69,-4.68 4.69,-12.28 0,-16.97 -4.68,-4.69 -12.28,-4.69 -16.97,0 -4.68,4.69 -4.68,12.29 0,16.97 4.69,4.69 12.29,4.69 16.97,0 z"
           style="fill:#ffffff;fill-opacity:1;fill-rule:evenodd;stroke:none"
           id="path3624"
           inkscape:connector-curvature="0" /></g></g><g
       id="g3626"><g
         id="g3628"
         clip-path="url(#clipPath3630)"><path
           d="m 663.22,326.51 c 4.69,-4.68 4.69,-12.28 0,-16.97 -4.68,-4.69 -12.28,-4.69 -16.97,0 -4.68,4.69 -4.68,12.29 0,16.97 4.69,4.69 12.29,4.69 16.97,0 z"
           style="fill:none;stroke:#ffffff;stroke-width:1;stroke-linecap:butt;stroke-linejoin:miter;stroke-miterlimit:10;stroke-dasharray:none;stroke-opacity:1"
           id="path3634"
           inkscape:connector-curvature="0" /></g></g><g
       id="g3636"><g
         id="g3638"
         clip-path="url(#clipPath3640)"><path
           d="m 550.41,255.99 c 1.71,-6.4 -2.09,-12.98 -8.49,-14.7 -6.4,-1.71 -12.98,2.09 -14.7,8.49 -1.71,6.4 2.09,12.98 8.49,14.7 6.4,1.71 12.98,-2.09 14.7,-8.49 z"
           style="fill:#ffffff;fill-opacity:1;fill-rule:evenodd;stroke:none"
           id="path3644"
           inkscape:connector-curvature="0" /></g></g><g
       id="g3646"><g
         id="g3648"
         clip-path="url(#clipPath3650)"><path
           d="m 550.41,255.99 c 1.71,-6.4 -2.09,-12.98 -8.49,-14.7 -6.4,-1.71 -12.98,2.09 -14.7,8.49 -1.71,6.4 2.09,12.98 8.49,14.7 6.4,1.71 12.98,-2.09 14.7,-8.49 z"
           style="fill:none;stroke:#ffffff;stroke-width:1;stroke-linecap:butt;stroke-linejoin:miter;stroke-miterlimit:10;stroke-dasharray:none;stroke-opacity:1"
           id="path3654"
           inkscape:connector-curvature="0" /></g></g><g
       id="g3656"><g
         id="g3658"
         clip-path="url(#clipPath3660)"><path
           d="m 683.34,291.61 c 1.72,-6.4 -2.08,-12.98 -8.48,-14.7 -6.4,-1.71 -12.98,2.09 -14.7,8.49 -1.72,6.4 2.08,12.98 8.49,14.7 6.4,1.71 12.98,-2.09 14.69,-8.49 z"
           style="fill:#ffffff;fill-opacity:1;fill-rule:evenodd;stroke:none"
           id="path3664"
           inkscape:connector-curvature="0" /></g></g><g
       id="g3666"><g
         id="g3668"
         clip-path="url(#clipPath3670)"><path
           d="m 683.34,291.61 c 1.72,-6.4 -2.08,-12.98 -8.48,-14.7 -6.4,-1.71 -12.98,2.09 -14.7,8.49 -1.72,6.4 2.08,12.98 8.49,14.7 6.4,1.71 12.98,-2.09 14.69,-8.49 z"
           style="fill:none;stroke:#ffffff;stroke-width:1;stroke-linecap:butt;stroke-linejoin:miter;stroke-miterlimit:10;stroke-dasharray:none;stroke-opacity:1"
           id="path3674"
           inkscape:connector-curvature="0" /></g></g><g
       id="g3676"><g
         id="g3678"
         clip-path="url(#clipPath3680)"><path
           d="m 550.94,284.87 c -1.72,-6.4 -8.3,-10.2 -14.7,-8.49 -6.4,1.72 -10.2,8.3 -8.49,14.7 1.72,6.4 8.3,10.2 14.7,8.49 6.4,-1.72 10.2,-8.3 8.49,-14.7 z"
           style="fill:#ffffff;fill-opacity:1;fill-rule:evenodd;stroke:none"
           id="path3684"
           inkscape:connector-curvature="0" /></g></g><g
       id="g3686"><g
         id="g3688"
         clip-path="url(#clipPath3690)"><path
           d="m 550.94,284.87 c -1.72,-6.4 -8.3,-10.2 -14.7,-8.49 -6.4,1.72 -10.2,8.3 -8.49,14.7 1.72,6.4 8.3,10.2 14.7,8.49 6.4,-1.72 10.2,-8.3 8.49,-14.7 z"
           style="fill:none;stroke:#ffffff;stroke-width:1;stroke-linecap:butt;stroke-linejoin:miter;stroke-miterlimit:10;stroke-dasharray:none;stroke-opacity:1"
           id="path3694"
           inkscape:connector-curvature="0" /></g></g><g
       id="g3696"><g
         id="g3698"
         clip-path="url(#clipPath3700)"><path
           d="m 683.87,249.25 c -1.71,-6.4 -8.29,-10.2 -14.69,-8.49 -6.41,1.72 -10.2,8.3 -8.49,14.7 1.72,6.4 8.3,10.2 14.7,8.49 6.4,-1.72 10.2,-8.3 8.48,-14.7 z"
           style="fill:#ffffff;fill-opacity:1;fill-rule:evenodd;stroke:none"
           id="path3704"
           inkscape:connector-curvature="0" /></g></g><g
       id="g3706"><g
         id="g3708"
         clip-path="url(#clipPath3710)"><path
           d="m 683.87,249.25 c -1.71,-6.4 -8.29,-10.2 -14.69,-8.49 -6.41,1.72 -10.2,8.3 -8.49,14.7 1.72,6.4 8.3,10.2 14.7,8.49 6.4,-1.72 10.2,-8.3 8.48,-14.7 z"
           style="fill:none;stroke:#ffffff;stroke-width:1;stroke-linecap:butt;stroke-linejoin:miter;stroke-miterlimit:10;stroke-dasharray:none;stroke-opacity:1"
           id="path3714"
           inkscape:connector-curvature="0" /></g></g><g
       id="g3716"><g
         id="g3718"
         clip-path="url(#clipPath3720)"><path
           d="m 450.22,420.72 c 11.9,11.9 31.18,11.9 43.08,0 11.9,-11.9 11.9,-31.18 0,-43.08 -11.9,-11.9 -31.18,-11.9 -43.08,0 -11.9,11.9 -11.9,31.18 0,43.08 z"
           style="fill:#4087c4;fill-opacity:1;fill-rule:evenodd;stroke:none"
           id="path3724"
           inkscape:connector-curvature="0" /></g></g><g
       id="g3726"><g
         id="g3728"
         clip-path="url(#clipPath3730)"><path
           d="m 493.72,428.88 7.74,-7.74 -7.69,-7.69 -7.74,7.74 7.69,7.69 z"
           style="fill:#4087c4;fill-opacity:1;fill-rule:evenodd;stroke:none"
           id="path3734"
           inkscape:connector-curvature="0" /></g></g><g
       id="g3736"><g
         id="g3738"
         clip-path="url(#clipPath3740)"><path
           d="m 331.33,335.7 c 23.23,7.58 77.8,-61.09 78.32,-81.45 0.52,-20.37 -51.95,-46.74 -75.19,-40.73 -23.24,6 -50.39,35.24 -50.91,55.61 -0.52,20.36 24.54,59 47.78,66.57 z"
           style="fill:#4087c4;fill-opacity:1;fill-rule:evenodd;stroke:none"
           id="path3744"
           inkscape:connector-curvature="0" /></g></g><g
       id="g3746"><g
         id="g3748"
         clip-path="url(#clipPath3750)"><path
           d="m 541.13,120.14 c 7.14,23.25 -59.55,82.3 -79.83,83 -20.27,0.69 -48.34,-55.28 -41.79,-78.82 6.54,-23.54 39.19,-47.869 59.46,-48.566 20.27,-0.696 55.02,21.132 62.16,44.386 z"
           style="fill:#4087c4;fill-opacity:1;fill-rule:evenodd;stroke:none"
           id="path3754"
           inkscape:connector-curvature="0" /></g></g><rect
       style="opacity:0.872;fill:#ffffff;fill-opacity:0.58823529;stroke:none;stroke-width:2.4000001;stroke-miterlimit:10;stroke-dasharray:7.2, 2.4;stroke-dashoffset:0;stroke-opacity:1"
       id="rect3818"
       width="512.6582"
       height="515.58765"
       x="221.59416"
       y="-530.45862"
       transform="scale(1,-1)" /></g></svg>